<svg xmlns="http://www.w3.org/2000/svg" viewBox="0 0 455.65 355.69">
    <g id="Layer_1" data-name="Layer 1">
        <path style="fill:#537483" d="M45.54,48.88V36a19.64,19.64,0,0,1,4-11.94C56,15.67,64.33,2.52,91.77.75,118.61.53,165-.11,178.6,0,189.07,2.28,196,6.59,197.39,8c7,7.26,25.48,25.22,33.79,27,9.25,2,181.67.56,203.79.37,1.6,0,6.44,1.4,7.71,2.36,4.82,3.64,12.53,9,13,26,0,14.69-.16,251.72-.17,267.42a7,7,0,0,1-.22,1.76c-1.12,4.31-6.9,22.06-26.43,22.53-21.6.51-380.66,0-401.09,0a7,7,0,0,1-2-.28c-5-1.47-26.07-9.41-25.76-39.25C.34,283.25,1.34,97.53,1.41,84.42a7.09,7.09,0,0,1,.18-1.52c1-4.53,7-26.82,24.8-26.82l16.32.08C46.73,56.18,45.54,52.9,45.54,48.88Z"/>
        <path class="cls-1" style="fill:#B7DCEA;" d="M400.88,334.54l-1-251.38c-6.35-17.23-18.47-17.7-18.47-17.7S38.48,65,27.89,65c-6.1,0-12,6.82-14.64,11a19,19,0,0,0-2.94,10.29l1,241.89c0,12.35,20.3,17.9,20.3,17.9l376.23.45C404.18,342.24,400.88,334.54,400.88,334.54Z"/>
        <path class="cls-1" style="fill:#B7DCEA;" d="M55.51,58.27s300.21-.18,329.25-.07a25.27,25.27,0,0,1,7.72,1.85c5.5,3.05,9.13,7.56,13.06,13.06,3.42,4.79,3.66,10.71,4,16.92V331.1s2.11,13.41,16.23,14.82,18.71-15.18,18.71-15.18l.36-267.43c-.63-5,2.64-18.43-21.27-20.56-18.33-1-187.44.59-200.15-.36-11.06-4.94-22.47-27.53-50-33.53C148,8.51,86.57,8.79,86.57,8.79S60.92,14.51,55.51,33.45Z"/>
    </g>
</svg>