<svg xmlns="http://www.w3.org/2000/svg" viewBox="0 0 485.06 463.06">
    <g id="Layer_2" data-name="Layer 2">
        <g id="Layer_1-2" data-name="Layer 1">
            <rect class="cls-1" style="fill:#a9aaac;" width="431.65" height="431.65" rx="12"/>
            <rect class="cls-2" style="fill:#bcbec0;" x="7.06" y="9.88" width="417.88" height="411.53" rx="12"/>
            <rect class="cls-3" style="fill:#939495;" x="48.71" y="49.41" width="331.76" height="331.76" rx="12"/>
            <rect class="cls-4" style="fill:#4e4e4e;" x="53.65" y="55.76" width="322.56" height="322.56" rx="12"/>
            <path class="cls-5" style="fill:#d2d3d5;" d="M478.35,298.12h-.94c-3,0-7.06-1.85-7.06-4.83l1.53-76.82-1.53-78.88c0-3,3.5-4.77,6.47-4.77h1.3c3,0,6.94,2.14,6.94,5.12l-1.65,77.94,1.3,77.41C484.71,296.27,481.33,298.12,478.35,298.12Z"/>
            <rect class="cls-1" style="fill:#a9aaac;" x="464.29" y="208.47" width="7.71" height="14.76"/>
            <polygon class="cls-6" style="fill:#a8aaad;" points="401.47 431.65 401.47 463.06 373.59 463.06 359.47 431.65 401.47 431.65"/>
            <polygon class="cls-6" style="fill:#a8aaad;" points="30.26 431.65 30.26 463.06 58.14 463.06 72.26 431.65 30.26 431.65"/>
            <polygon class="cls-7" style="fill:#8c8a88;" points="380.47 61.41 420.71 39.18 464.29 39.18 464.29 393.18 422.38 393.18 380.47 373.41 380.47 61.41"/>
            <rect class="cls-8" style="fill:#999;" x="420.03" y="39.18" width="41.41" height="354.1"/>
            <polygon class="cls-9" style="fill:#bcbebd;" points="461.44 39.18 464.29 39.18 464.29 393.18 461.44 393.28 461.44 39.18"/>
            <circle class="cls-10" style="fill:#e0e0e0;" cx="443.19" cy="153.55" r="13.47"/>
            <circle class="cls-10" style="fill:#e0e0e0;" cx="443.19" cy="277.04" r="13.47"/>
            <circle class="cls-10" style="fill:#e0e0e0;" cx="443.19" cy="215.29" r="13.47"/>
            <rect class="cls-1" style="fill:#a9aaac;" x="53.31" y="162.4" width="322.56" height="7.26"/>
            <rect class="cls-1" style="fill:#a9aaac;" x="53.65" y="277.04" width="322.56" height="7.26"/>
        </g>
    </g>
</svg>