<svg xmlns="http://www.w3.org/2000/svg" viewBox="0 0 807 674.91">
    <defs></defs>
    <g id="Layer_2" data-name="Layer 2">
        <g id="Layer_1-2" data-name="Layer 1">
            <path style="fill:#f25268;" class="cls-1" d="M373,547.46l77-40-81-125,66-42-93-83,59-70L371.38,82.2a409.07,409.07,0,0,0-76.19-56.45l-.17-.1c-1.39-.78-2.52-1.39-3.35-1.84A198.1,198.1,0,0,0,197.14,0C118.64,0,50.88,45.3,19.27,110.83l-.14,0C-98.28,356,361.8,655.35,392.39,674.91Z"/>
            <path style="fill:#f25268;" class="cls-1" d="M787.87,110.8l-.14,0C756.12,45.3,688.36,0,609.86,0a198.1,198.1,0,0,0-94.53,23.81c-.83.45-2,1.06-3.35,1.84l-.16.1c-15,8.46-59.68,35.62-98.82,79.68-.19-.21-.39-.42-.58-.64L452,189.46l-57,72,95,79-78,48,99,127-87,32-2.68,123.09C485.76,628.3,900,344.84,787.87,110.8Z"/>
        </g>
    </g>
</svg>