<svg xmlns="http://www.w3.org/2000/svg" viewBox="0 0 458.75 387.06">
    <!-- <defs>
        <style>.cls-1{fill:#f0f0f0;}.cls-2{fill:#e0e0e0;}.cls-3{fill:#27debf;}.cls-19,.cls-4{opacity:0.1;}.cls-5{fill:#fff;}.cls-6{opacity:0.2;}.cls-7{fill:#ebebeb;}.cls-8{fill:#fafafa;}.cls-9{fill:#263238;}.cls-10,.cls-11{fill:none;stroke-linecap:round;stroke-miterlimit:10;stroke-width:0.57px;}.cls-10{stroke:#ebebeb;}.cls-11{stroke:#27debf;}.cls-12{opacity:0.25;}.cls-13{fill:#455a64;}.cls-14{fill:#f28f8f;}.cls-15{fill:#ffa8a7;}.cls-16{fill:#37474f;}.cls-17{fill:#f5f5f5;}.cls-18{opacity:0.3;}</style>
    </defs> -->
    <g id="Layer_2" data-name="Layer 2">
        <g id="Floor">
            <path id="Floor-2" data-name="Floor" class="cls-1" style="fill:#f0f0f0;" d="M67.18,348.39C156.76,400,302,400,391.57,348.39s89.58-135.17,0-186.74-234.81-51.56-324.39,0S-22.39,296.82,67.18,348.39Z"/>
        </g>
        <g id="Shadow">
            <path id="Shadows" class="cls-2" style="fill:#e0e0e0;" d="M52.78,292.59l139,80.24a10,10,0,0,0,9,0L411.68,251.08c2.49-1.43,2.49-3.77,0-5.2l-139-80.25a10,10,0,0,0-9,0L52.78,287.38C50.29,288.82,50.29,291.15,52.78,292.59Z"/>
            <path id="Shadow-2" data-name="Shadow" class="cls-2" style="fill:#e0e0e0;" d="M394.09,172.35c-16.41-6.57-42.56-6.57-58.42,0s-15.86,17.22,0,23.79,42,6.57,58.42,0S410.49,178.91,394.09,172.35Z"/>
            <ellipse id="Shadow-3" data-name="Shadow" class="cls-2" style="fill:#e0e0e0;" cx="64.27" cy="230.85" rx="33.63" ry="16.03"/>
        </g>
        <g id="Plants">
            <g id="Plants-2" data-name="Plants">
                <path class="cls-3" style="fill:#27debf;" d="M43.74,201.8c-.52-6.35-5.41-17.19-12.66-24.9s-18.86-11.43-26-8.33c-6.66,2.9-5.2,11.83,3.6,17.13s21.9,11.77,26.39,21.77l8.69,12Z"/>
                <path class="cls-4" style="opacity:0.1;" d="M43.74,201.8c-.52-6.35-5.41-17.19-12.66-24.9s-18.86-11.43-26-8.33c-6.66,2.9-5.2,11.83,3.6,17.13s21.9,11.77,26.39,21.77l8.69,12Z"/>
                <path class="cls-5" style="fill:#fff;" d="M44.65,210.12l.14,0a.44.44,0,0,0,.28-.56c-7.14-21.54-27.39-36-35.79-37.36a.44.44,0,0,0-.5.36.43.43,0,0,0,.36.5c8.22,1.35,28.07,15.56,35.09,36.78A.45.45,0,0,0,44.65,210.12Z"/>
                <path class="cls-3" style="fill:#27debf;" d="M42.79,228c-1.31-3.49-6.15-9-13.59-13.33-8.23-4.75-18.31-6.44-20.92-10.44-3.14-4.82.72-9.91,8.82-9.56s23.06,10.15,26.64,26.43Z"/>
                <path class="cls-5" style="fill:#fff;" d="M43.16,221.41a.49.49,0,0,0,.2,0,.44.44,0,0,0,.19-.59c-7-13.87-21.67-20.36-29.26-22a.43.43,0,0,0-.52.34.44.44,0,0,0,.33.52c7.44,1.61,21.85,8,28.67,21.53A.42.42,0,0,0,43.16,221.41Z"/>
            </g>
        </g>
        <g id="Notebook">
            <g id="Notebook-2" data-name="Notebook">
                <path class="cls-3" style="fill:#27debf;" d="M157,222.85v-2.74l103.9-57.25a5.49,5.49,0,0,1,4.93,0l144.07,81.29v2.73a1.73,1.73,0,0,1-1,1.42l-103.9,60Z"/>
                <path class="cls-4" style="opacity:0.1;" d="M409.85,246.88v-2.73l-1.76-1L304.93,305.55v2.74l103.9-60A1.73,1.73,0,0,0,409.85,246.88Z"/>
                <path class="cls-3" style="fill:#27debf;" d="M157,220.11l103.9-60a5.49,5.49,0,0,1,4.93,0l143.05,82.59c1.36.79,1.36,2.06,0,2.85l-103.9,60Z"/>
                <polygon class="cls-6" style="opacity:0.2;" points="304.93 308.29 304.93 305.55 156.95 220.11 156.95 222.85 304.93 308.29"/>
                <path class="cls-3" style="fill:#27debf;" d="M159.32,224.16l-105,55.3-2.16,3.4v2.73a4,4,0,0,0,2.16,3.4l138.43,79.92a7.73,7.73,0,0,0,7.2,0l102.69-59.29v-2.73Z"/>
                <path class="cls-4" style="opacity:0.1;" d="M159.32,224.16l-105,55.3-2.16,3.4v2.73a4,4,0,0,0,2.16,3.4l138.43,79.92a7.73,7.73,0,0,0,7.2,0l102.69-59.29v-2.73Z"/>
                <path class="cls-3" style="fill:#27debf;" d="M196.32,367.07a7.38,7.38,0,0,1-3.6-.89L54.29,286.25a3.75,3.75,0,0,1,0-6.79l100.41-58,147.91,85.4L199.92,366.18A7.36,7.36,0,0,1,196.32,367.07Z"/>
                <path class="cls-7" style="fill:#ebebeb;" d="M154.7,213.47,55.43,270.78l-1,1.42v10.66h0a1.73,1.73,0,0,0,1,1.42L193.86,364.2a5.42,5.42,0,0,0,4.93,0l99.27-57.31V296.24Z"/>
                <path class="cls-1" style="fill:#f0f0f0;" d="M298.06,296.24l-1.24.72-16.15,9.32-3,1.74-78.87,45.53a5.42,5.42,0,0,1-4.93,0L55.43,273.62c-1.36-.78-1.36-2.06,0-2.84l1.32-.76,97.95-56.55,142.13,82,.3.19Z"/>
                <path class="cls-2" style="fill:#e0e0e0;" d="M196.32,354.14V364.8a4.93,4.93,0,0,1-2.46-.6L55.43,284.28a1.72,1.72,0,0,1-1-1.43V272.2a1.73,1.73,0,0,0,1,1.42l138.43,79.93A4.92,4.92,0,0,0,196.32,354.14Z"/>
                <path class="cls-8" style="fill:#fafafa;" d="M298.06,294.82l-17.87,10.31-2.8,1.62-78.6,45.38a5.49,5.49,0,0,1-4.93,0l-124-71.57q-1.68-.93-3.12-1.8c-5.05-3.08-8.09-5.82-10-8.74l-.24-.37a2.06,2.06,0,0,1-.31-.74,2.21,2.21,0,0,1,1.73-2.5,46.26,46.26,0,0,0,9.35-3.9l.12-.07,87.3-50.39Z"/>
                <path class="cls-4" style="opacity:0.1;" d="M279.56,293.57c-1.27.73-1.27,1.93,0,2.67a5.1,5.1,0,0,0,4.6,0c1.28-.74,1.28-1.94,0-2.67A5,5,0,0,0,279.56,293.57Z"/>
                <path class="cls-9" style="fill:#263238;" d="M294.35,284.94c-1.75-1-4-.86-6.19.43-3.47,2-6.48,6.5-7.79,11.2a4.79,4.79,0,0,0,1.7.21c1.2-4.19,3.87-8.14,6.94-9.93a5.83,5.83,0,0,1,2.83-.87,3.27,3.27,0,0,1,1.66.44c1.48.85,2.33,2.93,2.33,5.7a10.59,10.59,0,0,1-.08,1.37l1.62.93a16.51,16.51,0,0,0,.17-2.3C297.54,288.73,296.38,286.11,294.35,284.94Z"/>
                <path class="cls-9" style="fill:#263238;" d="M297.21,295.31a3.53,3.53,0,0,1-.08.4l-.3-.19Z"/>
                <path class="cls-4" style="opacity:0.1;" d="M265.69,285.56c-1.27.73-1.27,1.93,0,2.67a5.1,5.1,0,0,0,4.6,0c1.28-.74,1.28-1.94,0-2.67A5,5,0,0,0,265.69,285.56Z"/>
                <path class="cls-9" style="fill:#263238;" d="M280.48,276.92c-1.75-1-4-.85-6.19.44-3.48,2-6.48,6.5-7.79,11.2a4.57,4.57,0,0,0,1.7.2c1.2-4.19,3.87-8.14,6.94-9.92A5.83,5.83,0,0,1,278,278a3.38,3.38,0,0,1,1.67.43c1.48.86,2.33,2.94,2.33,5.71a10.34,10.34,0,0,1-.08,1.36l1.62.94a16.51,16.51,0,0,0,.17-2.3C283.67,280.72,282.51,278.1,280.48,276.92Z"/>
                <path class="cls-4" style="opacity:0.1;" d="M251.81,277.54a1.42,1.42,0,0,0,0,2.67,5.06,5.06,0,0,0,4.61,0c1.27-.73,1.27-1.93,0-2.67A5.13,5.13,0,0,0,251.81,277.54Z"/>
                <path class="cls-9" style="fill:#263238;" d="M266.6,268.91c-1.75-1-4-.85-6.19.44-3.47,2-6.48,6.5-7.79,11.2a4.59,4.59,0,0,0,1.7.2c1.21-4.19,3.87-8.14,6.95-9.92a5.8,5.8,0,0,1,2.82-.87,3.37,3.37,0,0,1,1.66.43c1.48.86,2.33,2.94,2.33,5.71a12.39,12.39,0,0,1-.07,1.36l1.61.94a15.11,15.11,0,0,0,.17-2.3C269.79,272.7,268.63,270.09,266.6,268.91Z"/>
                <path class="cls-4" style="opacity:0.1;" d="M237.94,269.54a1.42,1.42,0,0,0,0,2.67,5.1,5.1,0,0,0,4.6,0c1.28-.74,1.28-1.94,0-2.67A5,5,0,0,0,237.94,269.54Z"/>
                <path class="cls-9" style="fill:#263238;" d="M252.73,260.91c-1.75-1-3.95-.86-6.19.43-3.47,2-6.48,6.5-7.79,11.2a4.82,4.82,0,0,0,1.7.21c1.21-4.19,3.87-8.14,6.94-9.93a5.83,5.83,0,0,1,2.83-.87,3.27,3.27,0,0,1,1.66.44c1.48.85,2.33,2.93,2.33,5.7a10.59,10.59,0,0,1-.08,1.37l1.62.93a16.51,16.51,0,0,0,.17-2.3C255.92,264.7,254.76,262.08,252.73,260.91Z"/>
                <path class="cls-4" style="opacity:0.1;" d="M224.07,261.53c-1.27.73-1.27,1.93,0,2.67a5.1,5.1,0,0,0,4.6,0c1.28-.74,1.28-1.94,0-2.67A5,5,0,0,0,224.07,261.53Z"/>
                <path class="cls-9" style="fill:#263238;" d="M238.86,252.9c-1.75-1-4-.86-6.19.43-3.48,2-6.48,6.5-7.79,11.2a4.76,4.76,0,0,0,1.7.21c1.2-4.19,3.87-8.14,6.94-9.93a5.83,5.83,0,0,1,2.82-.87,3.31,3.31,0,0,1,1.67.44c1.48.85,2.33,2.93,2.33,5.7a10.59,10.59,0,0,1-.08,1.37l1.62.93a16.51,16.51,0,0,0,.17-2.3C242.05,256.69,240.89,254.07,238.86,252.9Z"/>
                <path class="cls-4" style="opacity:0.1;" d="M210.19,253.52a1.42,1.42,0,0,0,0,2.67,5.1,5.1,0,0,0,4.6,0c1.28-.74,1.28-1.94,0-2.67A5,5,0,0,0,210.19,253.52Z"/>
                <path class="cls-9" style="fill:#263238;" d="M225,244.89c-1.75-1-3.95-.86-6.19.43-3.47,2-6.48,6.5-7.79,11.2a4.59,4.59,0,0,0,1.7.2c1.21-4.18,3.87-8.13,6.94-9.92a5.86,5.86,0,0,1,2.83-.87,3.27,3.27,0,0,1,1.66.44c1.48.85,2.33,2.93,2.33,5.7a10.34,10.34,0,0,1-.08,1.36l1.62.94a16.51,16.51,0,0,0,.17-2.3C228.17,248.68,227,246.06,225,244.89Z"/>
                <path class="cls-4" style="opacity:0.1;" d="M196.32,245.51c-1.27.73-1.27,1.93,0,2.67a5.1,5.1,0,0,0,4.6,0c1.28-.74,1.28-1.94,0-2.67A5,5,0,0,0,196.32,245.51Z"/>
                <path class="cls-9" style="fill:#263238;" d="M211.11,236.88c-1.75-1-4-.86-6.19.43-3.47,2-6.48,6.5-7.79,11.2a4.79,4.79,0,0,0,1.7.21c1.2-4.19,3.87-8.14,6.94-9.93a5.83,5.83,0,0,1,2.83-.87,3.27,3.27,0,0,1,1.66.44c1.48.85,2.33,2.93,2.33,5.7a10.59,10.59,0,0,1-.08,1.37l1.62.93a16.51,16.51,0,0,0,.17-2.3C214.3,240.67,213.14,238.05,211.11,236.88Z"/>
                <path class="cls-4" style="opacity:0.1;" d="M182.44,237.5a1.42,1.42,0,0,0,0,2.67,5.13,5.13,0,0,0,4.61,0c1.27-.74,1.27-1.94,0-2.67A5.06,5.06,0,0,0,182.44,237.5Z"/>
                <path class="cls-9" style="fill:#263238;" d="M197.24,228.87c-1.76-1-4-.86-6.2.43-3.47,2-6.48,6.5-7.78,11.2a4.73,4.73,0,0,0,1.69.21c1.21-4.19,3.87-8.14,7-9.93a5.8,5.8,0,0,1,2.82-.87,3.27,3.27,0,0,1,1.66.44c1.48.85,2.34,2.93,2.34,5.7a12.73,12.73,0,0,1-.08,1.37l1.61.93a15.11,15.11,0,0,0,.17-2.3C200.42,232.66,199.26,230,197.24,228.87Z"/>
                <path class="cls-4" style="opacity:0.1;" d="M168.57,229.49a1.42,1.42,0,0,0,0,2.67,5.13,5.13,0,0,0,4.61,0c1.27-.74,1.27-1.94,0-2.67A5.06,5.06,0,0,0,168.57,229.49Z"/>
                <path class="cls-9" style="fill:#263238;" d="M183.36,220.85c-1.75-1-4-.85-6.19.44-3.47,2-6.48,6.5-7.79,11.2a4.59,4.59,0,0,0,1.7.2c1.21-4.19,3.87-8.14,6.94-9.92a5.86,5.86,0,0,1,2.83-.87,3.37,3.37,0,0,1,1.66.43c1.48.86,2.33,2.94,2.33,5.71a10.34,10.34,0,0,1-.08,1.36l1.62.94a16.51,16.51,0,0,0,.17-2.3C186.55,224.65,185.39,222,183.36,220.85Z"/>
                <path class="cls-4" style="opacity:0.1;" d="M154.7,221.48c-1.27.73-1.27,1.93,0,2.67a5.1,5.1,0,0,0,4.6,0c1.28-.74,1.28-1.94,0-2.67A5,5,0,0,0,154.7,221.48Z"/>
                <path class="cls-9" style="fill:#263238;" d="M169.49,212.85c-1.75-1-4-.86-6.19.43-3.48,2-6.48,6.5-7.79,11.2a4.73,4.73,0,0,0,1.69.21c1.21-4.19,3.88-8.14,7-9.93a5.83,5.83,0,0,1,2.82-.87,3.24,3.24,0,0,1,1.66.44c1.48.85,2.34,2.93,2.34,5.7a10.59,10.59,0,0,1-.08,1.37l1.62.93a16.51,16.51,0,0,0,.17-2.3C172.68,216.64,171.52,214,169.49,212.85Z"/>
                <line class="cls-10" style="stroke:#ebebeb;fill:#263238;" x1="258.82" y1="292.19" x2="182.45" y2="336.28"/>
                <line class="cls-10" style="stroke:#ebebeb;fill:#263238;" x1="249.57" y1="286.85" x2="173.2" y2="330.94"/>
                <line class="cls-10" style="stroke:#ebebeb;fill:#263238;" x1="240.32" y1="281.51" x2="163.95" y2="325.6"/>
                <line class="cls-10" style="stroke:#ebebeb;fill:#263238;" x1="231.07" y1="276.17" x2="154.7" y2="320.26"/>
                <line class="cls-10" style="stroke:#ebebeb;fill:#263238;" x1="221.82" y1="270.83" x2="145.45" y2="314.92"/>
                <line class="cls-10" style="stroke:#ebebeb;fill:#263238;" x1="212.57" y1="265.49" x2="136.2" y2="309.58"/>
                <line class="cls-10" style="stroke:#ebebeb;fill:#263238;" x1="203.32" y1="260.15" x2="126.95" y2="304.24"/>
                <line class="cls-10" style="stroke:#ebebeb;fill:#263238;" x1="194.07" y1="254.81" x2="117.7" y2="298.9"/>
                <line class="cls-10" style="stroke:#ebebeb;fill:#263238;" x1="184.82" y1="249.47" x2="108.45" y2="293.56"/>
                <line class="cls-10" style="stroke:#ebebeb;fill:#263238;" x1="175.57" y1="244.13" x2="99.2" y2="288.22"/>
                <line class="cls-10" style="stroke:#ebebeb;fill:#263238;" x1="166.32" y1="238.79" x2="89.95" y2="282.88"/>
                <line class="cls-10" style="stroke:#ebebeb;fill:#263238;" x1="157.07" y1="233.44" x2="80.7" y2="277.54"/>
                <line class="cls-10" style="stroke:#ebebeb;fill:#263238;" x1="147.82" y1="228.1" x2="71.45" y2="272.2"/>
                <line class="cls-11" style="fill:none;stroke-linecap:round;stroke-miterlimit:10;stroke-width:0.57px;stroke:#27debf;" x1="143.19" y1="225.45" x2="277.32" y2="302.87"/>
                <line class="cls-11" style="fill:none;stroke-linecap:round;stroke-miterlimit:10;stroke-width:0.57px;stroke:#27debf;" x1="272.62" y1="294.9" x2="191.84" y2="341.62"/>
                <g class="cls-12" style="opacity:0.25;">
                    <path class="cls-13" style="fill:#455a64;" d="M232.22,285.13c-.71-1.07-2-1.49-3.13-2-.45-.21-1-.49-1.5-.77-.71-1.13-1.64-3-.4-3.2.73-.14,2.17.64,3,.87.44.14.34-.52,0-.64-1.36-.54-4-2.22-4.53.09a3.54,3.54,0,0,0,.32,2.13,4.58,4.58,0,0,0-2-.37c-.64.06-1.19.08-1.41.83-.12.41.05.59.08.9a.79.79,0,0,0,.65.66,6.28,6.28,0,0,0-.73-.05c-1,0-3.59-.68-4.21.52-.25.49.33,1.18.24,1.36s-1.91.72-2.24.92c-.15.1,0,.62-.13.66a19.43,19.43,0,0,1-2.78,0c-1.53.13-5.31-.44-4.82,1.92.06.25.26.21.31.63a2.54,2.54,0,0,0,.11.57s-.16,0-.36.32-.65.12-.84.36c-.73.91.38,1.23-.52,1.79-1.28.8-3.93-.81-5.23.08s.35,3.08-1.68,3.12c-.45,0-.19.68.15.71,1.9.16,1.69-.2,2.06-1.75.59-2.53,4.38-.79,6.5-1.37a.36.36,0,0,0,.15-.56c-.55-.9.1-1.4.94-1.79a.36.36,0,0,0,.15-.55c-.23-.41-1-1.68-.54-2.27a11.78,11.78,0,0,1,2.25-.26,45.39,45.39,0,0,1,5-.09.34.34,0,0,0,.31-.47c-.23-.53,1.9-.87,2.38-1a.36.36,0,0,0,.2-.45c-1-2.54,2.74-1.61,4.3-1.36a.36.36,0,0,0,.43-.48c-.24-.86-2.13-1.71.11-2a3.72,3.72,0,0,1,1.72.41,12,12,0,0,0,3.9,4C231.85,287.37,233.35,286.86,232.22,285.13Zm-.7.46c.47.63-1,.12-1.18,0a5.55,5.55,0,0,1-2-2.09c.46.25.87.48,1.16.62A4.5,4.5,0,0,1,231.52,285.59Z"/>
                    <path class="cls-13" style="fill:#455a64;" d="M194,301.22c-.28-1.1-.31-2.31.71-2.44.49-.07.14-.74-.23-.75-1.38,0-1.81,1.16-1.63,2.6a7.9,7.9,0,0,0-1.72-.58c-.89-.17-1.47-.2-1.77.72-.18.54.26.9.23,1.39-.05.73.67.43-.42.71a6.35,6.35,0,0,1-1.26-.13,1.91,1.91,0,0,0-1.86.58c-.68.57,1,.85-1,.53a4,4,0,0,0-1.56-.22c-.74.16-1.12.38-1,1.19,0,.36.84.85.83,1.08,0,1.76-1.9.27-2.62,0a.34.34,0,0,0-.45.28c0,.87.58,1.17-.69,1.25-.15,0-1-.48-1.29-.48-.82,0-1.56,1.06-2.62,1-.29,0-.39.23-.3.47.29.79.72,1.27-.88,2,0,0-1.88-.24-1.83-.24-.46,0-.17.75.18.77.73.06,3.2,1.1,3.93.11.54-.72-.52-1.56-.26-2-.17.31,1.41-.43,1.58-.49a4.7,4.7,0,0,1,1.24-.34c.22,0,.4.36.64.36s.64.15.92,0,.34-.51.45-.59c.28-.18-.36-.41.19-.59s.75.26,1.12.38c.6.19,1.5.63,2,0,.66-.83-.56-1.41-.45-2,.26-1.25,2-.3,2.86-.86a.33.33,0,0,0,.12-.38c-.51-1.73,2.63-.38,3.62-.56.17,0,.36-.15.33-.36s-.39-1.07-.39-1.09c.25-1,1.68-.92,2.34-.74.63,2.1,2.3,4.22,4.12,3.65a.32.32,0,0,0,.23-.31C197.34,303.64,195.71,302.2,194,301.22Zm.65,1.73a4.52,4.52,0,0,1-.24-.49,4.28,4.28,0,0,1,1.28,1.26C196.07,304.77,194.84,303.25,194.67,303Z"/>
                    <path class="cls-13" style="fill:#455a64;" d="M221.77,312.5c-.7-1.07-2-1.5-3.12-2-.46-.21-1-.49-1.51-.77-.7-1.13-1.64-3-.4-3.2.74-.14,2.17.63,3,.87.45.13.35-.52,0-.65-1.36-.53-4-2.22-4.52.1a3.55,3.55,0,0,0,.31,2.13,4.4,4.4,0,0,0-2-.37c-.64.05-1.19.07-1.42.82-.12.42.06.6.08.91a.81.81,0,0,0,.65.66,4.89,4.89,0,0,0-.73-.06c-1,0-3.59-.67-4.2.52-.25.5.32,1.18.24,1.37s-1.92.72-2.24.92c-.15.09,0,.61-.13.66a21,21,0,0,1-2.78,0c-1.53.13-5.32-.44-4.82,1.91,0,.26.25.22.3.63a2.45,2.45,0,0,0,.12.58c-.06,0-.16,0-.36.31s-.66.13-.85.37c-.72.91.38,1.22-.52,1.79-1.27.8-3.93-.82-5.22.08s.35,3.08-1.69,3.12c-.45,0-.19.67.15.7,1.9.17,1.7-.19,2.06-1.74.6-2.54,4.38-.79,6.51-1.38a.36.36,0,0,0,.15-.55c-.56-.9.09-1.4.93-1.79a.37.37,0,0,0,.16-.55c-.23-.42-1-1.68-.54-2.27a12.38,12.38,0,0,1,2.25-.27,45.24,45.24,0,0,1,4.94-.08.35.35,0,0,0,.32-.47c-.24-.53,1.9-.87,2.37-1a.34.34,0,0,0,.2-.45c-1-2.53,2.74-1.6,4.3-1.35a.37.37,0,0,0,.44-.48c-.25-.86-2.13-1.72.11-2a3.71,3.71,0,0,1,1.71.41,12,12,0,0,0,3.91,4C221.41,314.74,222.91,314.23,221.77,312.5Zm-.69.46c.46.62-1,.12-1.18,0a5.47,5.47,0,0,1-2-2.09c.45.25.86.47,1.16.61A4.58,4.58,0,0,1,221.08,313Z"/>
                    <path class="cls-13" style="fill:#455a64;" d="M245.25,293.09c-.28-1.1-.32-2.31.71-2.44.49-.07.14-.74-.23-.75-1.38,0-1.81,1.16-1.63,2.6a7.9,7.9,0,0,0-1.72-.58c-.9-.17-1.48-.2-1.77.72-.18.54.26.9.22,1.39-.05.73.68.43-.41.71a6.35,6.35,0,0,1-1.26-.13,1.9,1.9,0,0,0-1.86.58c-.68.57,1,.85-1,.53a4,4,0,0,0-1.57-.22c-.73.17-1.12.38-1,1.19.06.36.85.85.84,1.08,0,1.76-1.91.27-2.62,0a.33.33,0,0,0-.45.28c0,.87.58,1.17-.69,1.25-.15,0-1-.48-1.3-.48-.81,0-1.55,1.06-2.61,1-.29,0-.39.23-.3.47.29.79.72,1.27-.88,2,0,0-1.88-.24-1.84-.24-.46,0-.16.75.19.77.73.06,3.2,1.1,3.93.11.54-.72-.53-1.56-.26-2-.18.31,1.41-.43,1.58-.49a4.7,4.7,0,0,1,1.24-.34c.22,0,.4.36.64.36s.63.15.91,0,.35-.51.46-.59c.28-.18-.36-.41.19-.59.4-.14.75.26,1.12.38.6.19,1.5.63,2,0,.67-.83-.55-1.41-.44-2,.26-1.25,2-.3,2.86-.86a.33.33,0,0,0,.12-.38c-.51-1.73,2.63-.38,3.61-.56.18,0,.37-.15.34-.36s-.39-1.07-.39-1.09c.25-1,1.68-.92,2.33-.74.64,2.1,2.31,4.22,4.13,3.65a.32.32,0,0,0,.23-.31C248.56,295.51,246.94,294.07,245.25,293.09Zm.65,1.73a4.52,4.52,0,0,1-.24-.49,4.41,4.41,0,0,1,1.28,1.26C247.29,296.64,246.07,295.12,245.9,294.82Z"/>
                    <path class="cls-13" style="fill:#455a64;" d="M175.8,254c-.71-1.07-2-1.5-3.12-2-.46-.21-1-.49-1.51-.77-.71-1.13-1.64-3-.4-3.2.74-.14,2.17.63,3,.87.45.13.35-.52,0-.65-1.36-.53-4-2.22-4.52.1a3.55,3.55,0,0,0,.31,2.13,4.4,4.4,0,0,0-2-.37c-.64.06-1.19.07-1.42.82-.12.42.06.6.08.91a.81.81,0,0,0,.65.66,4.89,4.89,0,0,0-.73-.06c-1,0-3.59-.67-4.2.52-.26.5.32,1.18.24,1.37s-1.92.72-2.25.92c-.14.09,0,.61-.13.66a20.87,20.87,0,0,1-2.77,0c-1.54.13-5.32-.44-4.82,1.91,0,.26.25.22.3.63a2.45,2.45,0,0,0,.12.58c-.06,0-.16,0-.36.31s-.66.13-.85.37c-.72.91.38,1.22-.52,1.79-1.27.8-3.93-.82-5.22.08s.34,3.08-1.69,3.12c-.45,0-.19.67.15.7,1.9.17,1.7-.19,2.06-1.74.6-2.54,4.38-.79,6.5-1.38a.36.36,0,0,0,.16-.55c-.56-.9.09-1.4.93-1.79a.37.37,0,0,0,.16-.55c-.23-.42-1-1.68-.54-2.27a12.38,12.38,0,0,1,2.25-.27,45.2,45.2,0,0,1,4.94-.08.35.35,0,0,0,.32-.47c-.24-.53,1.9-.87,2.37-1a.34.34,0,0,0,.2-.45c-1-2.53,2.74-1.6,4.3-1.35a.37.37,0,0,0,.44-.48c-.25-.86-2.13-1.72.1-2a3.72,3.72,0,0,1,1.72.41,12,12,0,0,0,3.91,4C175.44,256.19,176.94,255.68,175.8,254Zm-.69.46c.46.63-1,.12-1.19,0a5.52,5.52,0,0,1-1.95-2.09c.45.25.86.48,1.16.61A4.58,4.58,0,0,1,175.11,254.41Z"/>
                    <path class="cls-13" style="fill:#455a64;" d="M137.6,270c-.28-1.1-.31-2.31.71-2.45.5-.06.15-.73-.22-.74-1.38-.05-1.82,1.15-1.64,2.6a7.67,7.67,0,0,0-1.71-.58c-.9-.17-1.48-.2-1.78.72-.17.54.27.9.23,1.39-.05.72.67.42-.41.71a7.3,7.3,0,0,1-1.27-.13,1.88,1.88,0,0,0-1.85.58c-.68.57,1,.84-1,.52a4.12,4.12,0,0,0-1.56-.21c-.74.16-1.12.37-1,1.18.06.37.84.85.84,1.09,0,1.75-1.91.26-2.63,0a.33.33,0,0,0-.45.28c0,.86.58,1.17-.68,1.25-.15,0-1-.48-1.3-.49-.81,0-1.56,1.06-2.62,1-.29,0-.38.24-.3.48.3.79.72,1.27-.87,2,0,0-1.88-.23-1.84-.23-.46,0-.17.74.19.77.73.05,3.19,1.1,3.92.11.54-.72-.52-1.57-.25-2-.18.31,1.4-.43,1.58-.49a4.74,4.74,0,0,1,1.23-.34c.22,0,.41.36.64.36s.64.15.92,0,.35-.52.46-.59c.28-.18-.36-.41.19-.6s.74.27,1.12.39c.59.19,1.5.63,2,0,.66-.84-.56-1.41-.44-2,.25-1.25,2-.31,2.86-.86a.36.36,0,0,0,.11-.39c-.5-1.72,2.63-.37,3.62-.56.18,0,.36-.14.34-.35s-.39-1.08-.39-1.09c.25-1,1.67-.92,2.33-.75.64,2.11,2.3,4.23,4.12,3.66a.3.3,0,0,0,.23-.32C140.92,272.46,139.3,271,137.6,270Zm.66,1.73a3.75,3.75,0,0,1-.24-.49,4.29,4.29,0,0,1,1.28,1.26C139.65,273.58,138.43,272.06,138.26,271.77Z"/>
                    <path class="cls-13" style="fill:#455a64;" d="M165.35,281.32c-.7-1.07-2-1.5-3.12-2-.45-.2-1-.48-1.5-.76-.71-1.13-1.64-3-.41-3.21.74-.14,2.17.64,3,.88.44.13.34-.53,0-.65-1.37-.53-4-2.22-4.53.09a3.54,3.54,0,0,0,.32,2.13,4.61,4.61,0,0,0-2-.37c-.64.06-1.19.08-1.41.83-.13.41.05.59.08.91a.79.79,0,0,0,.64.65c-.07,0-.28,0-.72-.05-1,0-3.6-.68-4.21.52-.25.5.33,1.18.24,1.37s-1.91.72-2.24.92c-.15.09-.05.61-.13.66a22.91,22.91,0,0,1-2.78,0c-1.53.12-5.31-.45-4.82,1.91.06.25.26.22.31.63a2.4,2.4,0,0,0,.11.57c-.05,0-.16,0-.36.32s-.65.13-.84.36c-.73.91.38,1.23-.52,1.8-1.28.8-3.93-.82-5.23.07-1.15.8.35,3.09-1.69,3.13-.44,0-.18.67.16.7,1.9.17,1.69-.19,2.06-1.75.59-2.53,4.38-.78,6.5-1.37a.36.36,0,0,0,.15-.56c-.55-.9.1-1.39.93-1.78a.36.36,0,0,0,.16-.55c-.23-.42-1-1.68-.54-2.28a11.69,11.69,0,0,1,2.25-.26,48,48,0,0,1,4.95-.09.34.34,0,0,0,.31-.47c-.23-.53,1.9-.86,2.38-1a.35.35,0,0,0,.2-.45c-1-2.54,2.74-1.6,4.3-1.36a.36.36,0,0,0,.43-.48c-.24-.85-2.13-1.71.11-2a3.43,3.43,0,0,1,1.71.41,11.86,11.86,0,0,0,3.91,4C165,283.56,166.49,283,165.35,281.32Zm-.69.46c.47.62-1,.11-1.18,0a5.52,5.52,0,0,1-2-2.08c.46.25.87.47,1.16.61A4.45,4.45,0,0,1,164.66,281.78Z"/>
                    <path class="cls-13" style="fill:#455a64;" d="M188.83,261.91c-.28-1.1-.31-2.31.71-2.45.49-.06.14-.73-.22-.74-1.39-.05-1.82,1.15-1.64,2.6a7.84,7.84,0,0,0-1.71-.58c-.9-.17-1.48-.2-1.78.72-.18.54.26.9.23,1.39,0,.72.67.42-.41.71a7.2,7.2,0,0,1-1.27-.13,1.91,1.91,0,0,0-1.86.58c-.68.57,1,.84-1,.52a4.15,4.15,0,0,0-1.56-.21c-.74.16-1.12.37-1,1.19,0,.36.84.84.84,1.08,0,1.75-1.91.27-2.63,0a.33.33,0,0,0-.45.28c0,.86.58,1.17-.68,1.25-.16,0-1-.48-1.3-.49-.82,0-1.56,1.06-2.62,1-.29,0-.39.24-.3.48.29.79.72,1.27-.87,1.95,0,0-1.88-.23-1.84-.23-.46,0-.17.74.19.77.73.06,3.19,1.1,3.92.11.54-.72-.52-1.57-.26-2-.17.31,1.41-.43,1.58-.49a4.7,4.7,0,0,1,1.24-.34c.22,0,.41.36.64.36s.64.15.92,0,.34-.51.46-.59c.28-.18-.37-.41.18-.6s.75.27,1.13.39c.59.19,1.5.63,2,0,.66-.84-.56-1.41-.45-2,.26-1.25,2.05-.31,2.86-.86a.35.35,0,0,0,.12-.39c-.5-1.72,2.63-.37,3.62-.55.17,0,.36-.15.34-.36s-.4-1.08-.39-1.09c.24-1,1.67-.92,2.33-.75.63,2.11,2.3,4.23,4.12,3.66a.31.31,0,0,0,.23-.32C192.15,264.33,190.52,262.89,188.83,261.91Zm.65,1.73c-.06-.11-.14-.28-.23-.49a4.1,4.1,0,0,1,1.27,1.26C190.88,265.45,189.66,263.93,189.48,263.64Z"/>
                    <path class="cls-13" style="fill:#455a64;" d="M171.15,300.15c-.7-1.07-2-1.5-3.12-2-.45-.21-1-.49-1.5-.77-.71-1.13-1.64-3-.41-3.21.74-.13,2.17.64,3,.88.45.13.35-.52,0-.65-1.37-.53-4-2.22-4.53.1a3.52,3.52,0,0,0,.32,2.12,4.61,4.61,0,0,0-2-.37c-.64.06-1.19.08-1.41.83-.13.42.05.6.08.91,0,.47.51.62.64.66a4.84,4.84,0,0,0-.72-.06c-1,0-3.6-.67-4.21.52-.25.5.33,1.18.24,1.37s-1.91.72-2.24.92c-.15.09,0,.61-.13.66a22.91,22.91,0,0,1-2.78,0c-1.53.12-5.31-.45-4.82,1.91.06.26.26.22.31.63a2.7,2.7,0,0,0,.11.58s-.16,0-.36.31-.65.13-.84.37c-.73.91.38,1.22-.53,1.79-1.27.8-3.92-.82-5.22.08-1.15.79.35,3.08-1.69,3.12-.44,0-.18.67.16.7,1.9.17,1.69-.19,2.06-1.74.59-2.54,4.37-.79,6.5-1.38a.36.36,0,0,0,.15-.56c-.55-.9.1-1.39.93-1.78a.36.36,0,0,0,.16-.55c-.23-.42-1-1.68-.54-2.28A13.52,13.52,0,0,1,151,303a48,48,0,0,1,5-.09.33.33,0,0,0,.31-.46c-.24-.53,1.9-.87,2.38-1a.35.35,0,0,0,.2-.45c-1-2.54,2.74-1.6,4.3-1.36a.36.36,0,0,0,.43-.48c-.24-.85-2.13-1.71.11-2a3.57,3.57,0,0,1,1.71.41,11.86,11.86,0,0,0,3.91,4C170.79,302.39,172.29,301.88,171.15,300.15Zm-.69.46c.47.62-1,.12-1.18,0a5.45,5.45,0,0,1-2-2.08c.46.25.87.47,1.16.61A4.52,4.52,0,0,1,170.46,300.61Z"/>
                    <path class="cls-13" style="fill:#455a64;" d="M189.75,282.46c-.28-1.1-.31-2.31.71-2.44.49-.07.14-.74-.22-.75-1.39,0-1.82,1.16-1.64,2.6a7.67,7.67,0,0,0-1.71-.58c-.9-.17-1.48-.2-1.78.72-.18.54.26.9.23,1.39-.05.73.67.43-.41.71a6.37,6.37,0,0,1-1.27-.13,1.88,1.88,0,0,0-1.85.58c-.69.57,1,.85-1,.53a4,4,0,0,0-1.56-.22c-.74.17-1.12.38-1,1.19.05.36.84.85.84,1.08-.05,1.76-1.91.27-2.63,0a.34.34,0,0,0-.45.28c0,.87.58,1.17-.68,1.25-.16,0-1-.48-1.3-.48-.82,0-1.56,1.06-2.62,1-.29,0-.39.23-.3.47.29.79.72,1.27-.87,2,0,0-1.88-.24-1.84-.24-.46,0-.17.75.19.77.73.06,3.19,1.1,3.92.11.54-.72-.52-1.56-.26-2-.17.31,1.41-.43,1.58-.49a4.81,4.81,0,0,1,1.24-.34c.22,0,.41.36.64.36s.64.15.92,0,.34-.51.46-.59c.28-.18-.37-.41.19-.59.4-.14.74.26,1.12.38.59.19,1.5.63,2,0,.66-.83-.56-1.41-.44-2,.25-1.25,2-.3,2.86-.86a.34.34,0,0,0,.11-.38c-.5-1.73,2.63-.38,3.62-.56.18,0,.36-.15.34-.36s-.4-1.07-.39-1.09c.24-1,1.67-.92,2.33-.74.63,2.1,2.3,4.22,4.12,3.65a.31.31,0,0,0,.23-.31C193.07,284.88,191.44,283.44,189.75,282.46Zm.66,1.73a3.2,3.2,0,0,1-.24-.49,4.41,4.41,0,0,1,1.28,1.26C191.8,286,190.58,284.49,190.41,284.19Z"/>
                    <path class="cls-13" style="fill:#455a64;" d="M211.05,268.13a1,1,0,0,0,0-.42c-.29-1.07-1.54-.27-1.75.39s.26.91.23,1.4c0,.72.67.42-.42.71a7.19,7.19,0,0,1-1.26-.13,1.91,1.91,0,0,0-1.86.58c-.68.57,1,.84-1,.52a4.18,4.18,0,0,0-1.57-.22c-.73.17-1.12.38-1,1.19.05.37.84.85.83,1.09,0,1.75-1.9.26-2.62,0a.33.33,0,0,0-.45.27c0,.87.58,1.18-.69,1.26-.15,0-1-.48-1.29-.49-.82,0-1.56,1.06-2.62,1-.29,0-.39.24-.3.47.29.8.72,1.28-.88,2,0,0-1.88-.23-1.83-.23-.46,0-.17.74.18.77.73,0,3.2,1.09,3.93.11.54-.73-.52-1.57-.26-2-.17.3,1.41-.43,1.58-.49a4.35,4.35,0,0,1,1.24-.34c.22,0,.4.36.64.36s.63.15.92,0,.34-.52.45-.59c.28-.19-.36-.41.19-.6.4-.14.75.27,1.12.39.6.19,1.5.63,2,0,.66-.83-.56-1.4-.45-2,.26-1.25,2-.31,2.86-.86a.35.35,0,0,0,.12-.39c-.51-1.73,2.63-.37,3.62-.56.17,0,.36-.15.33-.36a5.16,5.16,0,0,1-.14-2.22C211,268.47,211,268.3,211.05,268.13Z"/>
                </g>
            </g>
        </g>
        <g id="Character">
            <g id="Character-2" data-name="Character">
                <path class="cls-14" style="fill:#f28f8f;" d="M83.82,55.92C88.48,61.49,96.17,69,100.54,74.49a16,16,0,0,1,3.54,10.13c0,2.73-.78,5-3.45,3.84-1.93-.84-3.15-1.84-6-4.61-2.53-2.5-14.77-14-14.77-14s-2.29-14.1-6.07-15.24-7-7.19-7-7.19C73,46.83,77.9,48.85,83.82,55.92Z"/>
                <path class="cls-15" style="fill:#ffa8a7;" d="M126.41,201.49l21.87,32a1.18,1.18,0,0,0,2.15-.6L152.57,194Z"/>
                <path class="cls-9" style="fill:#263238;" d="M150.43,232.91a1.18,1.18,0,0,1-2.15.6L144,227.26h0a6.54,6.54,0,0,0,6.45-2.17l.43-.51Z"/>
                <path class="cls-3" style="fill:#27debf;" d="M108.62,36.44l1,3.45,1.17,4.17L152.57,194a17.34,17.34,0,0,1-9.61,8.24c-6.17,2.41-13.24,2.13-16.53-.72L84.94,52.69l-2.23-8C84.44,49.8,110.29,41.56,108.62,36.44Z"/>
                <path class="cls-7" style="fill:#ebebeb;" d="M112.34,49.58l2.13,7.73c.7,2.22-3.67,5-9,7-7.12,2.71-16,4.12-16.92,1.18L86.92,59.8l-.53-2c.92,2.94,9.8,1.53,16.92-1.18,5.14-1.94,9.38-4.59,9.07-6.75v0A.62.62,0,0,0,112.34,49.58Z"/>
                <path class="cls-3" style="fill:#27debf;" d="M112.85,51.52c1.63,5.14-24.33,13.33-25.95,8.18L84.74,52c1.62,5.15,27.57-3,25.94-8.18Z"/>
                <path class="cls-7" style="fill:#ebebeb;" d="M108.62,36.44l2.14,7.62c1.63,5-23.34,13.19-25.82,8.63a1.2,1.2,0,0,1-.13-.28l-2.1-7.7C84.44,49.8,110.29,41.56,108.62,36.44Z"/>
                <path class="cls-4" style="opacity:0.1;" d="M84.94,52.69l-2.23-8c.78,2.3,6.49,1.87,12.36.25h0l43,158.58,10.25,30-21.87-32h0Z"/>
                <path class="cls-14" style="fill:#f28f8f;" d="M99.56,4.08l9.06,32.36c.72,2.19-3.59,5-8.91,7-7.12,2.74-16,4.21-17,1.29,0,0,0,0,0,0L74,13.56C71.36,6.47,84.22-.51,92.79,0,96,.21,98.58,1.43,99.56,4.08Z"/>
                <path class="cls-9" style="fill:#263238;" d="M61.6,42.31h0A18.29,18.29,0,0,1,43.31,24V23a15.5,15.5,0,0,1,15.5-15.5h5.58A15.5,15.5,0,0,1,79.89,23v1A18.29,18.29,0,0,1,61.6,42.31Z"/>
                <path class="cls-9" style="fill:#263238;" d="M35.88,44.17h0a8.31,8.31,0,0,0,8.31-8.31V19.34h0a8.31,8.31,0,0,0-8.31,8.31Z"/>
                <path class="cls-9" style="fill:#263238;" d="M80.42,223.23a48.54,48.54,0,0,0,7,6.07,2.84,2.84,0,0,1,1,1c.33.68.84,2.37-2.28,3.46a11.58,11.58,0,0,1-9.63-.92c-2.56-1.6-2.67-4.94-5.09-6.84-1.79-1.42-4-1.78-5.48-3.62-1-1.28-.75-3-.22-5.1.57-2.31.84-4.06,1.6-3.88l-.12,1.06c.95,1.52,5.89,2,8.08.92A90.55,90.55,0,0,0,80.42,223.23Z"/>
                <path class="cls-15" style="fill:#ffa8a7;" d="M82.59,225.39v0c-.74-.68-1.47-1.38-2.17-2.14a61.24,61.24,0,0,1-4-5.94A9.15,9.15,0,0,1,74.67,213c0-2,.15-5.67.15-5.67l-7.32-.48-.35,7.67h0c-.19,1.74,1.24,3.28,3.79,5.48s5.78,7.31,8.08,8.59,4,1.24,4.94.59S85.07,227.93,82.59,225.39Z"/>
                <path class="cls-9" style="fill:#263238;" d="M56.07,230.54a48,48,0,0,0,7,6.07,2.92,2.92,0,0,1,1,1c.33.68.84,2.37-2.28,3.46a11.58,11.58,0,0,1-9.63-.92c-2.56-1.6-2.68-4.94-5.09-6.84-1.8-1.42-4-1.78-5.48-3.62-1-1.28-.75-3-.22-5.1.57-2.31.84-4,1.6-3.88l-.13,1.06c1,1.52,5.89,2,8.09.92A90.55,90.55,0,0,0,56.07,230.54Z"/>
                <path class="cls-15" style="fill:#ffa8a7;" d="M58.24,232.7v0c-.75-.67-1.47-1.38-2.17-2.14a61.24,61.24,0,0,1-4-5.94,10.37,10.37,0,0,1-1.71-4.41c-.13-1.79,0-5.52,0-5.52l-7.31,0-.19,7.07h0c-.18,1.74,1.25,3.28,3.8,5.48s5.78,7.31,8.08,8.6,3.95,1.23,4.94.58S60.72,235.24,58.24,232.7Z"/>
                <path class="cls-16" style="fill:#37474f;" d="M42.89,96.2c-6.38,13.92.87,66.71.87,66.71-.19,2.26-2.18,5.77-2.41,12.67-.3,8.86,1.27,41.57,1.27,41.57a9.22,9.22,0,0,0,8.34.17s7.55-44.41,9-56.09c1.29-10.19,3.76-34.16,3.76-34.16l5.07,34.1s-2.61,5.7-2.74,10.84c-.18,6.9.84,38.93.84,38.93s3.08,1.08,8.47.29c0,0,7.68-43.34,8.4-51.61.43-4.94-3.26-65.51-3.26-65.51Z"/>
                <path class="cls-9" style="fill:#263238;" d="M63.74,127.07l2.07-11.38s8.75-1.82,12.72-5.55A22.63,22.63,0,0,1,68.18,117l-2.33,10,2.3,29.75Z"/>
                <path class="cls-17" style="fill:#f5f5f5;" d="M55.33,47.78h0c-5.59.77-8.59,2-10.4,7.26-1.18,3.44-.86,8.5.33,11.94l4.89,14.28A76.91,76.91,0,0,0,42.89,96.2c14.29,8,33.33,3.73,37.63-2.09.18-1.24-1-7.2-.63-13.54.37-6.75,1.45-14.5.39-18.68-2-7.74-7.38-12.8-13.47-14.44Z"/>
                <path class="cls-15" style="fill:#ffa8a7;" d="M73.88,14.9c1.93,1.15,4.32,6,4.09,16.19-.2,8.63-3,10.77-4.41,11.38s-4.11.24-6.75-.2v5.18s3.64,4.23,3.42,6.61S65,57,61.56,54.67A22,22,0,0,1,56,48.82V36.3s-1.78,2.37-4.69.44S48.26,30,50,28.31s5.34-1.17,6,1.2c0,0,4.2.15,9.8-2.92A15.72,15.72,0,0,0,73.88,14.9Z"/>
                <path class="cls-9" style="fill:#263238;" d="M68.33,28.92a1.09,1.09,0,1,1-1.14-1.07A1.11,1.11,0,0,1,68.33,28.92Z"/>
                <path class="cls-14" style="fill:#f28f8f;" d="M68.62,36.24l2.52.8A1.3,1.3,0,0,1,69.5,38,1.38,1.38,0,0,1,68.62,36.24Z"/>
                <path class="cls-9" style="fill:#263238;" d="M77.23,25.59,75,24.07a1.29,1.29,0,0,1,1.83-.38A1.41,1.41,0,0,1,77.23,25.59Z"/>
                <path class="cls-9" style="fill:#263238;" d="M76.72,28.14a1.09,1.09,0,0,1-1,1.17,1.13,1.13,0,1,1,1-1.17Z"/>
                <polygon class="cls-14" style="fill:#f28f8f;" points="71.6 27.52 71.77 34.05 75.21 32.98 71.6 27.52"/>
                <path class="cls-14" style="fill:#f28f8f;" d="M66.81,42.27c-2.77-.36-8.48-2-9.37-4.26a5.78,5.78,0,0,0,2,2.88c1.7,1.46,7.37,3.11,7.37,3.11Z"/>
                <path class="cls-15" style="fill:#ffa8a7;" d="M110.75,89.85c-1.69.65-3.4.69-5.71,1.78a10.72,10.72,0,0,1-5,1.43c-2.28.11-8.64-2.61-14.24-5.21A59.24,59.24,0,0,1,69.47,76.17,119.16,119.16,0,0,1,56.88,58.08c-2-3.42-4-8.37-7.19-9-5.5.57-7.73,10.16-4.16,16.08s9.91,13.66,16.68,20.22C65.49,88.57,71.5,92,80.1,95.7a116.15,116.15,0,0,0,17.38,6c1.72.45,2.94,1.09,6.17,2.2a14.42,14.42,0,0,0,4.1,1,18,18,0,0,0,5.21-.56,12.35,12.35,0,0,0,5.7-3.22,7.82,7.82,0,0,0,1.9-3.06,5.22,5.22,0,0,0-.12-3.57,1.42,1.42,0,0,0-.42-.6,1.78,1.78,0,0,0-1.29-.15,72.31,72.31,0,0,1-7.53,1.2c-2.09.08-3.58-.15-3.32-.47s1.5-.29,3.09-1.19,2.49-2.61,1.94-3.42S112.45,89.21,110.75,89.85Z"/>
                <path class="cls-15" style="fill:#ffa8a7;" d="M115.38,66.76s-2.27-1.81-6.6-1.1c-2.09.34-1.29,8.26,5.44,10.47,4.38,1.43,5.27.69,6.69,4.3,0,0,2.64-.55,2-4.58a22.64,22.64,0,0,0-5.34-11.17c-1.93-2.27-2.06-4.19-3-3.54s-.41,2.61-.41,2.61Z"/>
            </g>
        </g>
        <g id="Coffee">
            <g id="Coffee-2" data-name="Coffee">
                <path class="cls-9" style="fill:#263238;" d="M393.5,109.59c-16.07-5.92-41.7-5.92-57.24,0s-15.54,15.51,0,21.43,41.17,5.92,57.24,0S409.58,115.51,393.5,109.59Z"/>
                <path class="cls-8" style="fill:#fafafa;" d="M406.83,83.56l-83.5.09L329.66,182h.08c.4,3.58,3.74,7.12,10.12,9.85,13.6,5.84,36,5.84,50.09,0,6.6-2.73,10.06-6.27,10.47-9.85h.08Z"/>
                <path class="cls-1" style="fill:#f0f0f0;" d="M323.34,83.65l1.28,20a36.71,36.71,0,0,0,7,3.74c18,7.48,47.83,7.48,66.5,0,.81-.32,1.49-.67,2.22-1a44,44,0,0,0,5.24-3l1.27-19.85Z"/>
                <path class="cls-3" style="fill:#27debf;" d="M412.11,86.47v-15h-9.73q-2-1-4.27-2c-18.68-7.47-48.46-7.47-66.51,0a41.15,41.15,0,0,0-4.09,2h-9.46v15h0c0,4.9,4.52,9.8,13.55,13.54,18,7.48,47.83,7.48,66.51,0C407.44,96.27,412.11,91.37,412.11,86.47Z"/>
                <path class="cls-3" style="fill:#27debf;" d="M398.1,57.89c-18.67-7.48-48.45-7.48-66.5,0s-18.06,19.6,0,27.08,47.83,7.48,66.5,0S416.78,65.37,398.1,57.89Z"/>
                <g class="cls-18" style="opacity:0.3;">
                    <path class="cls-5" style="fill:#fff;" d="M398.1,57.89c-18.67-7.48-48.45-7.48-66.5,0s-18.06,19.6,0,27.08,47.83,7.48,66.5,0S416.78,65.37,398.1,57.89Z"/>
                </g>
                <path class="cls-3" style="fill:#27debf;" d="M400.12,67.2h0l-3.76-13.75H333.8L330,67.2h0c-1.4,3.91,1.89,8,9.87,11,13.58,5.1,36,5.1,50,0C398.17,75.2,401.57,71.11,400.12,67.2Z"/>
                <path class="cls-3" style="fill:#27debf;" d="M387.17,46.45c-12.49-4.54-32.41-4.54-44.48,0s-12.08,11.91,0,16.45,32,4.54,44.48,0S399.66,51,387.17,46.45Z"/>
                <g class="cls-18" style="opacity:0.3;">
                    <path class="cls-5" style="fill:#fff;" d="M387.17,46.45c-12.49-4.54-32.41-4.54-44.48,0s-12.08,11.91,0,16.45,32,4.54,44.48,0S399.66,51,387.17,46.45Z"/>
                </g>
                <path class="cls-3" style="fill:#27debf;" d="M392.2,54.69c0,.17-.34.75-1.38,1.55a19.82,19.82,0,0,1-5.12,2.6c-5.51,2-13.14,3.15-20.92,3.15s-15.29-1.14-20.58-3.13a17.7,17.7,0,0,1-4.95-2.62c-1-.82-1.3-1.42-1.3-1.57,0-.31,1.08-2.23,6.25-4.17s12.79-3.14,20.58-3.14,15.41,1.15,20.92,3.16C390.89,52.4,392.18,54.3,392.2,54.69Z"/>
                <g class="cls-19">
                    <path style="fill:#27debf;" d="M390.82,56.24a19.82,19.82,0,0,1-5.12,2.6c-5.51,2-13.14,3.15-20.92,3.15s-15.29-1.14-20.58-3.13a17.7,17.7,0,0,1-4.95-2.62,18,18,0,0,1,4.95-2.61c5.29-2,12.79-3.13,20.58-3.13s15.41,1.14,20.92,3.15A19.55,19.55,0,0,1,390.82,56.24Z"/>
                </g>
                <path class="cls-9" style="fill:#263238;" d="M378.31,56.53c1.81-1,4-1.46,4.94-.94s.17,1.77-1.65,2.81-4,1.47-4.94.94S376.49,57.56,378.31,56.53Z"/>
                <path class="cls-13" style="fill:#455a64;" d="M327,156c0,3.65,3.66,7.31,11,10.1,14.64,5.57,38.78,5.57,53.93,0,7.56-2.79,11.34-6.43,11.35-10.08l2.35-35.67c0,3.88-4,7.76-12.06,10.72-16.07,5.92-41.7,5.92-57.24,0-7.77-3-11.65-6.84-11.65-10.72Z"/>
                <path class="cls-9" style="fill:#263238;" d="M360,158.06c-1.36-1.83-2.11-4.08-3.21-6.05a17.89,17.89,0,0,0-9.33-8.22,1.17,1.17,0,0,0-1.45.53c-2,4.13-.78,9.91,3.42,14.1s9.87,5.44,14,3.51c.24-.11.3-.57.11-.68A11.79,11.79,0,0,1,360,158.06Z"/>
                <path class="cls-9" style="fill:#263238;" d="M349.72,142.66a19.94,19.94,0,0,1,5.88,3.62,17.77,17.77,0,0,1,4.26,5.82,17.12,17.12,0,0,0,5.35,7.1,1.15,1.15,0,0,0,1.61-.25c2.74-4.15,1.65-10.5-2.87-15-4.29-4.28-10.24-5.51-14.38-3.31A1.14,1.14,0,0,0,349.72,142.66Z"/>
            </g>
        </g>
    </g>
</svg>