<svg xmlns="http://www.w3.org/2000/svg" viewBox="0 0 357.78 534.81">
    <g id="Layer_2" data-name="Layer 2">
        <g id="Layer_1-2" data-name="Layer 1">
            <path id="body_path" data-name="body path" class="cls-1" style="fill:#60c1fb;" d="M1.56,60.21v22h13v68s-7-2-7,4-1,96,0,100,7,4,7,4,5,219,6,231,21,12,21,12h30s3,6,6,8,63,2,68,1l4-5h26c1,0,5,7,7,8s68,2,70,2c0,0,5-5,5-6,0,0,38,1,43-1s6-6,8-22,10-142,10-142,11,3,11-9,7-89,6-93c0,0,0-4-6-4l12-162h14v-21c0-3-6-1-6-1Z"/>
            <path id="lid_top" data-name="lid top" class="cls-1" style="fill:#60c1fb;" d="M.56,17.21,353.37,37s1.1-9-1.89-10-52-2.53-52-2.53.94-7.75-.91-9c-3-2-41-2.43-41-2.43s-2.07,7-2.09,8-55-1.57-56-2.58-.91-9-1.91-9-40-2.41-40-2.41-2,5-1.07,7-56-.58-58-2.6,1.07-7-.91-9S57.75-1,56.73,1s-.06,6-1.07,7-52-3.53-54-1.55S.56,17.21.56,17.21Z"/>
            <polygon id="lid_middle" data-name="lid middle" class="cls-2" style="fill:#4192c6;" points="9.56 17.21 335.56 35.21 335.56 45.21 9.56 28.21 9.56 20.21 9.56 17.21"/>
            <path id="lid_bottom" data-name="lid bottom" class="cls-3" style="fill:#61c1fb;" d="M1.56,27.21s-2,7,2,11,349,16,349,16,2,1,2-8Z"/>
            <path id="shadow" class="cls-4" style="fill:#1b5076;" d="M18.56,39.21s16,6,18,11-17,6-17,6l-11,4,331-6Z"/>
            <path id="body_top_" data-name="body top&apos;" class="cls-5" style="fill:#47b0f8;" d="M1.56,82.21l354-7s5-12,0-21l-354,5Z"/>
            <polygon id="body_top_shadow" data-name="body top shadow" class="cls-6" style="fill:#4fadea;" points="13.56 82.21 341.56 76.21 340.56 86.21 13.56 86.21 13.56 82.21"/>
            <path id="left_eye" data-name="left eye" class="cls-7" style="fill:#3992cc;" d="M103.56,82.21v19s3,8,16,8c0,0,10-2,12-7s1-20,1-20Z"/>
            <path id="left_eye-2" data-name="left eye" class="cls-7" style="fill:#3992cc;" d="M213.56,82.21v19s3,8,16,8c0,0,10-2,12-7s1-20,1-20Z"/>
            <path class="cls-7" style="fill:#3992cc;" d="M124.56,148.16c3.77,7.22,15.38,35.8,48,37.05,21,0,43-25,45-39C199.56,160.21,151.56,160.21,124.56,148.16Z"/>
            <path class="cls-8" style="fill:#45a1dc;" d="M42.56,501.21l9-266s4-10,14-10,14,11,14,11l-9,265Z"/>
            <path class="cls-8" style="fill:#45a1dc;" d="M257.56,509.21l9-266s4-10,14-10,14,11,14,11l-9,265Z"/>
            <path class="cls-8" style="fill:#45a1dc;" d="M157.56,261.21s5-8,13-8,15,10,15,10l-10,242h-26Z"/>
            <path class="cls-9" style="fill:#9ec9e9;" d="M329.56,238.21s7-1,7,2l-7,98s-2,8-11,6Z"/>
            <path class="cls-9" style="fill:#9ec9e9;" d="M14.56,150.21s-6-2-7,3c-.78,3.92-1,100,0,102s0,3,7,3Z"/>
            <path class="cls-10" style="fill:#3e3e3e;" d="M10.66,407a23.88,23.88,0,0,0-7,5.85,4.8,4.8,0,0,0-1.11,2.92C2,428.07-1.29,509.74.56,516.21c2,7,13,7,13,7C24,524.82,26.06,507.06,26.46,500a5,5,0,0,0-1.73-4,17.13,17.13,0,0,1-3.55-4.63,4.92,4.92,0,0,1-.64-2.31c-.22-8.84-2.33-60.14-3-77.85A4.73,4.73,0,0,0,10.66,407Z"/>
            <path class="cls-10" style="fill:#3e3e3e;" d="M320.56,424.21c5,6,3,99.4,3,99.4a3,3,0,0,1-.22,1.27,16.78,16.78,0,0,1-9.76,9.33c-8,3-18-6-19-9-.57-1.71.34-11,.81-14.61a2.48,2.48,0,0,1,1.4-1.92c2.32-1.1,7.28-3.93,8.79-8.47,4-6,7-76,7-76l.54-3.26C313.3,419.75,317.56,418.21,320.56,424.21Z"/>
            <path class="cls-11" style="fill:#bbe8ff;stroke:#f5fcff;stroke-miterlimit:10;" d="M317.92,38.21s-.52,27.35,13.79,32.49c8.62,3.09,25.85,4.64,25.85,4.64s-19.28,1.13-31,13.93c-6.72,7.32-8.62,20.11-8.62,30.94,0,0,0-18.57-8.62-32.49-5.12-8.29-16.67-12.91-32.74-12.38,0,0,22.51-.07,31-6.19S317.92,38.21,317.92,38.21Z"/>
        </g>
    </g>
</svg>