<svg xmlns="http://www.w3.org/2000/svg" viewBox="0 0 431.65 463.06">
    <g id="Layer_1-2" data-name="Layer 1">
        <rect class="cls-1" style="fill:#a9aaac;" width="431.65" height="431.65" rx="12"/>
        <rect class="cls-2" style="fill:#bcbec0;" x="7.06" y="9.88" width="417.88" height="411.53" rx="12"/>
        <polygon class="cls-3" style="fill:#a8aaad;" points="401.47 431.65 401.47 463.06 373.59 463.06 359.47 431.65 401.47 431.65"/>
        <polygon class="cls-3" style="fill:#a8aaad;" points="30.26 431.65 30.26 463.06 58.14 463.06 72.26 431.65 30.26 431.65"/>
        <rect class="cls-4" style="fill:#7a7a7a;" x="26.54" y="28.56" width="378.57" height="374.17" rx="12"/>
        <circle class="cls-5" style="fill:#b7b7b7;" cx="221.39" cy="129.37" r="41.05"/>
        <path class="cls-5" style="fill:#b7b7b7;" d="M180.34,233.52l-.05,14.14a8,8,0,0,1-8,7.91l-64.76-8.4a6.11,6.11,0,0,0-1.54,0l.25-12.85a6,6,0,0,0,1.59,0l64.57-8.75A8,8,0,0,1,180.34,233.52Z"/>
        <path class="cls-5" style="fill:#b7b7b7;" d="M75.22,308.19,63,301.07a8,8,0,0,1-2.86-10.86l39.69-51.85a5.73,5.73,0,0,0,.78-1.33l11,6.65a5.59,5.59,0,0,0-.8,1.38L86.08,305.33A8,8,0,0,1,75.22,308.19Z"/>
        <path class="cls-5" style="fill:#b7b7b7;" d="M100.35,243a6.1,6.1,0,0,0-.76-1.34L60.54,189.78a8,8,0,0,1,3-10.83l12.28-7a8,8,0,0,1,10.83,2.95l24.24,60.57a5.55,5.55,0,0,0,.79,1.38Z"/>
        <circle class="cls-6" style="fill:#e0e0e0;" cx="106.38" cy="240.56" r="7.67"/>
    </g>
</svg>